<svg xmlns="http://www.w3.org/2000/svg" xmlns:xlink="http://www.w3.org/1999/xlink" width="500" zoomAndPan="magnify" viewBox="0 0 375 374.999991" height="500" preserveAspectRatio="xMidYMid meet" version="1.0"><defs><clipPath id="b79a7155b3"><path d="M 239 7 L 364 7 L 364 132 L 239 132 Z M 239 7 " clip-rule="nonzero"/></clipPath><clipPath id="327bbcf24b"><path d="M 294.246094 7.742188 L 363.320312 63.316406 L 307.742188 132.390625 L 238.667969 76.816406 Z M 294.246094 7.742188 " clip-rule="nonzero"/></clipPath><clipPath id="83e0bc284c"><path d="M 294.246094 7.742188 L 363.183594 63.210938 L 308 131.800781 L 239.058594 76.332031 Z M 294.246094 7.742188 " clip-rule="nonzero"/></clipPath><clipPath id="97c5e9a675"><path d="M 11 7 L 135 7 L 135 132 L 11 132 Z M 11 7 " clip-rule="nonzero"/></clipPath><clipPath id="edbc85e004"><path d="M 81.089844 7.742188 L 135.078125 78.0625 L 64.757812 132.050781 L 10.769531 61.730469 Z M 81.089844 7.742188 " clip-rule="nonzero"/></clipPath><clipPath id="176ab58692"><path d="M 81.089844 7.742188 L 134.972656 77.925781 L 65.148438 131.539062 L 11.261719 61.351562 Z M 81.089844 7.742188 " clip-rule="nonzero"/></clipPath><clipPath id="8619118108"><path d="M 17.820312 181.519531 L 362.597656 181.519531 L 362.597656 368.25 L 17.820312 368.25 Z M 17.820312 181.519531 " clip-rule="nonzero"/></clipPath><clipPath id="d5d2332f2c"><path d="M 18.410156 57.242188 L 363 57.242188 L 363 243.972656 L 18.410156 243.972656 Z M 18.410156 57.242188 " clip-rule="nonzero"/></clipPath><clipPath id="2754a8f70d"><path d="M 61.015625 5.300781 L 313.484375 5.300781 L 313.484375 257.769531 L 61.015625 257.769531 Z M 61.015625 5.300781 " clip-rule="nonzero"/></clipPath><clipPath id="41bca79243"><path d="M 78.265625 5.300781 L 296.234375 5.300781 C 305.761719 5.300781 313.484375 13.023438 313.484375 22.550781 L 313.484375 240.519531 C 313.484375 250.046875 305.761719 257.769531 296.234375 257.769531 L 78.265625 257.769531 C 68.738281 257.769531 61.015625 250.046875 61.015625 240.519531 L 61.015625 22.550781 C 61.015625 13.023438 68.738281 5.300781 78.265625 5.300781 " clip-rule="nonzero"/></clipPath><clipPath id="f20d7ac1b6"><path d="M 61.015625 5.300781 L 313.765625 5.300781 L 313.765625 258.050781 L 61.015625 258.050781 Z M 61.015625 5.300781 " clip-rule="nonzero"/></clipPath><clipPath id="439005b6c5"><path d="M 78.285156 5.300781 L 296.496094 5.300781 C 306.035156 5.300781 313.765625 13.03125 313.765625 22.570312 L 313.765625 240.78125 C 313.765625 250.320312 306.035156 258.050781 296.496094 258.050781 L 78.285156 258.050781 C 68.746094 258.050781 61.015625 250.320312 61.015625 240.78125 L 61.015625 22.570312 C 61.015625 13.03125 68.746094 5.300781 78.285156 5.300781 " clip-rule="nonzero"/></clipPath><clipPath id="54fe8c1a5c"><path d="M 121 49 L 283.648438 49 L 283.648438 232.652344 L 121 232.652344 Z M 121 49 " clip-rule="nonzero"/></clipPath><clipPath id="2d3f05d1ca"><path d="M 175 30.902344 L 190 30.902344 L 190 64 L 175 64 Z M 175 30.902344 " clip-rule="nonzero"/></clipPath><clipPath id="58c75252ed"><path d="M 193 30.902344 L 208 30.902344 L 208 64 L 193 64 Z M 193 30.902344 " clip-rule="nonzero"/></clipPath><clipPath id="1a16dd9fe7"><path d="M 165 30.902344 L 218 30.902344 L 218 45 L 165 45 Z M 165 30.902344 " clip-rule="nonzero"/></clipPath><clipPath id="2d46d028da"><path d="M 90.898438 128 L 161 128 L 161 144 L 90.898438 144 Z M 90.898438 128 " clip-rule="nonzero"/></clipPath></defs><g clip-path="url(#b79a7155b3)"><g clip-path="url(#327bbcf24b)"><g clip-path="url(#83e0bc284c)"><path fill="#f43f5e" d="M 294.246094 7.742188 L 363.320312 63.316406 L 307.742188 132.390625 L 238.667969 76.816406 Z M 294.246094 7.742188 " fill-opacity="1" fill-rule="nonzero"/></g></g></g><g clip-path="url(#97c5e9a675)"><g clip-path="url(#edbc85e004)"><g clip-path="url(#176ab58692)"><path fill="#f43f5e" d="M 81.089844 7.742188 L 135.078125 78.0625 L 64.757812 132.050781 L 10.769531 61.730469 Z M 81.089844 7.742188 " fill-opacity="1" fill-rule="nonzero"/></g></g></g><g clip-path="url(#8619118108)"><path fill="#f43f5e" d="M 17.820312 181.519531 L 362.136719 181.519531 L 362.136719 369.140625 L 17.820312 369.140625 Z M 17.820312 181.519531 " fill-opacity="1" fill-rule="nonzero"/></g><g clip-path="url(#d5d2332f2c)"><path fill="#f43f5e" d="M 18.410156 57.242188 L 362.722656 57.242188 L 362.722656 244.863281 L 18.410156 244.863281 Z M 18.410156 57.242188 " fill-opacity="1" fill-rule="nonzero"/></g><g clip-path="url(#2754a8f70d)"><g clip-path="url(#41bca79243)"><path fill="#f43f5e" d="M 61.015625 5.300781 L 313.484375 5.300781 L 313.484375 257.769531 L 61.015625 257.769531 Z M 61.015625 5.300781 " fill-opacity="1" fill-rule="nonzero"/></g></g><g clip-path="url(#f20d7ac1b6)"><g clip-path="url(#439005b6c5)"><path stroke-linecap="butt" transform="matrix(0.750835, 0, 0, 0.750835, 61.016228, 5.300169)" fill="none" stroke-linejoin="miter" d="M 22.999617 0.000815089 L 313.623783 0.000815089 C 326.328381 0.000815089 336.624203 10.296637 336.624203 23.001235 L 336.624203 313.625401 C 336.624203 326.329999 326.328381 336.625821 313.623783 336.625821 L 22.999617 336.625821 C 10.29502 336.625821 -0.000802697 326.329999 -0.000802697 313.625401 L -0.000802697 23.001235 C -0.000802697 10.296637 10.29502 0.000815089 22.999617 0.000815089 " stroke="#000000" stroke-width="30" stroke-opacity="1" stroke-miterlimit="4"/></g></g><path stroke-linecap="round" transform="matrix(-0.308992, 0.684114, -0.683514, -0.308721, 78.87881, 246.750365)" fill="none" stroke-linejoin="miter" d="M 9.000515 9.001147 L 168.856156 9.001743 " stroke="#000000" stroke-width="18" stroke-opacity="1" stroke-miterlimit="4"/><path stroke-linecap="round" transform="matrix(0.330591, 0.671543, -0.672884, 0.331251, 309.497562, 243.907206)" fill="none" stroke-linejoin="miter" d="M 9.002102 8.999484 L 171.362118 8.997982 " stroke="#000000" stroke-width="18" stroke-opacity="1" stroke-miterlimit="4"/><path stroke-linecap="round" transform="matrix(-0.74988, -0.00569184, 0.00569259, -0.749978, 369.04955, 374.999947)" fill="none" stroke-linejoin="miter" d="M 9.000397 8.999591 L 468.0686 9.000042 " stroke="#000000" stroke-width="18" stroke-opacity="1" stroke-miterlimit="4"/><path stroke-linecap="round" transform="matrix(0.000000000000000046, 0.74917, -0.75, 0.000000000000000046, 18.56176, 53.561502)" fill="none" stroke-linejoin="miter" d="M 9.000878 8.999014 L 414.47057 8.999014 " stroke="#000000" stroke-width="18" stroke-opacity="1" stroke-miterlimit="4"/><path stroke-linecap="round" transform="matrix(0.000000000000000046, 0.74917, -0.75, 0.000000000000000046, 369.936074, 57.244969)" fill="none" stroke-linejoin="miter" d="M 9.001047 8.998099 L 414.470739 8.998099 " stroke="#000000" stroke-width="18" stroke-opacity="1" stroke-miterlimit="4"/><path stroke-linecap="round" transform="matrix(-0.596147, 0.454759, -0.454881, -0.596308, 82.839073, 15.065598)" fill="none" stroke-linejoin="miter" d="M 9.002028 8.999347 L 107.031682 9.002222 " stroke="#000000" stroke-width="18" stroke-opacity="1" stroke-miterlimit="4"/><path stroke-linecap="round" transform="matrix(0.589758, 0.461678, -0.462311, 0.590567, 301.682769, 4.38613)" fill="none" stroke-linejoin="miter" d="M 8.997533 9.000472 L 105.168405 8.997909 " stroke="#000000" stroke-width="18" stroke-opacity="1" stroke-miterlimit="4"/><g clip-path="url(#54fe8c1a5c)"><path fill="#000000" d="M 142.839844 80.476562 C 156.144531 69.722656 173.070312 63.277344 191.496094 63.277344 C 234.238281 63.277344 268.945312 97.96875 268.945312 140.691406 C 268.945312 183.417969 234.238281 218.109375 191.496094 218.109375 C 168.582031 218.109375 147.976562 208.132812 133.789062 192.304688 C 131.199219 189.402344 126.742188 189.160156 123.847656 191.75 C 120.949219 194.339844 120.703125 198.796875 123.296875 201.6875 C 140.0625 220.40625 164.414062 232.183594 191.496094 232.183594 C 242.011719 232.183594 283.027344 191.1875 283.027344 140.691406 C 283.027344 90.199219 242.011719 49.203125 191.496094 49.203125 C 169.71875 49.203125 149.703125 56.820312 133.988281 69.535156 C 130.964844 71.976562 130.496094 76.414062 132.9375 79.4375 C 135.386719 82.457031 139.816406 82.917969 142.839844 80.476562 Z M 142.839844 80.476562 " fill-opacity="1" fill-rule="evenodd"/></g><g clip-path="url(#2d3f05d1ca)"><path fill="#000000" d="M 189.148438 56.238281 L 189.148438 37.472656 C 189.148438 33.585938 185.996094 30.433594 182.109375 30.433594 C 178.222656 30.433594 175.066406 33.585938 175.066406 37.472656 L 175.066406 56.238281 C 175.066406 60.125 178.222656 63.277344 182.109375 63.277344 C 185.996094 63.277344 189.148438 60.125 189.148438 56.238281 Z M 189.148438 56.238281 " fill-opacity="1" fill-rule="evenodd"/></g><g clip-path="url(#58c75252ed)"><path fill="#000000" d="M 207.925781 56.238281 L 207.925781 37.472656 C 207.925781 33.585938 204.769531 30.433594 200.882812 30.433594 C 196.996094 30.433594 193.84375 33.585938 193.84375 37.472656 L 193.84375 56.238281 C 193.84375 60.125 196.996094 63.277344 200.882812 63.277344 C 204.769531 63.277344 207.925781 60.125 207.925781 56.238281 Z M 207.925781 56.238281 " fill-opacity="1" fill-rule="evenodd"/></g><path fill="#000000" d="M 252.796875 79.980469 L 266.082031 66.710938 C 268.824219 63.960938 268.824219 59.503906 266.082031 56.753906 C 263.332031 54.015625 258.871094 54.015625 256.121094 56.753906 L 242.847656 70.035156 C 240.097656 72.773438 240.097656 77.238281 242.847656 79.980469 C 245.589844 82.730469 250.058594 82.730469 252.796875 79.980469 Z M 252.796875 79.980469 " fill-opacity="1" fill-rule="evenodd"/><path fill="#000000" d="M 276.265625 65.339844 L 257.492188 46.574219 C 254.75 43.824219 250.28125 43.824219 247.539062 46.574219 C 244.789062 49.3125 244.789062 53.78125 247.539062 56.519531 L 266.316406 75.289062 C 269.058594 78.039062 273.527344 78.039062 276.265625 75.289062 C 279.019531 72.546875 279.019531 68.082031 276.265625 65.339844 Z M 276.265625 65.339844 " fill-opacity="1" fill-rule="evenodd"/><g clip-path="url(#1a16dd9fe7)"><path fill="#000000" d="M 172.722656 44.507812 L 210.273438 44.507812 C 214.160156 44.507812 217.3125 41.355469 217.3125 37.472656 C 217.3125 33.585938 214.160156 30.433594 210.273438 30.433594 L 172.722656 30.433594 C 168.835938 30.433594 165.679688 33.585938 165.679688 37.472656 C 165.679688 41.355469 168.835938 44.507812 172.722656 44.507812 Z M 172.722656 44.507812 " fill-opacity="1" fill-rule="evenodd"/></g><path fill="#000000" d="M 184.457031 89.082031 L 184.457031 136 C 184.457031 137.867188 185.199219 139.660156 186.519531 140.972656 L 214.683594 169.125 C 217.425781 171.875 221.894531 171.875 224.636719 169.125 C 227.386719 166.386719 227.386719 161.917969 224.636719 159.179688 L 198.539062 133.082031 C 198.539062 133.082031 198.539062 89.082031 198.539062 89.082031 C 198.539062 85.199219 195.382812 82.042969 191.496094 82.042969 C 187.609375 82.042969 184.457031 85.199219 184.457031 89.082031 Z M 184.457031 89.082031 " fill-opacity="1" fill-rule="evenodd"/><g clip-path="url(#2d46d028da)"><path fill="#000000" d="M 97.621094 143.039062 L 153.945312 143.039062 C 157.832031 143.039062 160.988281 139.886719 160.988281 136 C 160.988281 132.117188 157.832031 128.964844 153.945312 128.964844 L 97.621094 128.964844 C 93.734375 128.964844 90.578125 132.117188 90.578125 136 C 90.578125 139.886719 93.734375 143.039062 97.621094 143.039062 Z M 97.621094 143.039062 " fill-opacity="1" fill-rule="evenodd"/></g><path fill="#000000" d="M 125.785156 110.195312 L 153.945312 110.195312 C 157.832031 110.195312 160.988281 107.042969 160.988281 103.15625 C 160.988281 99.273438 157.832031 96.121094 153.945312 96.121094 L 125.785156 96.121094 C 121.898438 96.121094 118.742188 99.273438 118.742188 103.15625 C 118.742188 107.042969 121.898438 110.195312 125.785156 110.195312 Z M 125.785156 110.195312 " fill-opacity="1" fill-rule="evenodd"/><path fill="#000000" d="M 125.785156 175.882812 L 153.945312 175.882812 C 157.832031 175.882812 160.988281 172.730469 160.988281 168.84375 C 160.988281 164.957031 157.832031 161.804688 153.945312 161.804688 L 125.785156 161.804688 C 121.898438 161.804688 118.742188 164.957031 118.742188 168.84375 C 118.742188 172.730469 121.898438 175.882812 125.785156 175.882812 Z M 125.785156 175.882812 " fill-opacity="1" fill-rule="evenodd"/></svg>