<svg xmlns="http://www.w3.org/2000/svg" xmlns:xlink="http://www.w3.org/1999/xlink" width="500" zoomAndPan="magnify" viewBox="0 0 375 374.999991" height="500" preserveAspectRatio="xMidYMid meet" version="1.0"><defs><clipPath id="151a51820f"><path d="M 0 0 L 172 0 L 172 172 L 0 172 Z M 0 0 " clip-rule="nonzero"/></clipPath><clipPath id="8287603e22"><path d="M 17.25 0 L 155.132812 0 C 164.660156 0 172.382812 7.722656 172.382812 17.25 L 172.382812 155.132812 C 172.382812 164.660156 164.660156 172.382812 155.132812 172.382812 L 17.25 172.382812 C 7.722656 172.382812 0 164.660156 0 155.132812 L 0 17.25 C 0 7.722656 7.722656 0 17.25 0 " clip-rule="nonzero"/></clipPath><clipPath id="004575b0e8"><path d="M 0 0 L 172.5 0 L 172.5 172.5 L 0 172.5 Z M 0 0 " clip-rule="nonzero"/></clipPath><clipPath id="dfb1960478"><path d="M 17.261719 0 L 155.238281 0 C 164.773438 0 172.5 7.726562 172.5 17.261719 L 172.5 155.238281 C 172.5 164.773438 164.773438 172.5 155.238281 172.5 L 17.261719 172.5 C 7.726562 172.5 0 164.773438 0 155.238281 L 0 17.261719 C 0 7.726562 7.726562 0 17.261719 0 " clip-rule="nonzero"/></clipPath><clipPath id="76381c53ba"><path d="M 202.617188 0 L 375 0 L 375 172.382812 L 202.617188 172.382812 Z M 202.617188 0 " clip-rule="nonzero"/></clipPath><clipPath id="9426ecebc9"><path d="M 219.867188 0 L 357.75 0 C 362.324219 0 366.710938 1.816406 369.949219 5.050781 C 373.183594 8.289062 375 12.675781 375 17.25 L 375 155.132812 C 375 159.707031 373.183594 164.097656 369.949219 167.332031 C 366.710938 170.566406 362.324219 172.382812 357.75 172.382812 L 219.867188 172.382812 C 215.292969 172.382812 210.902344 170.566406 207.667969 167.332031 C 204.433594 164.097656 202.617188 159.707031 202.617188 155.132812 L 202.617188 17.25 C 202.617188 12.675781 204.433594 8.289062 207.667969 5.050781 C 210.902344 1.816406 215.292969 0 219.867188 0 " clip-rule="nonzero"/></clipPath><clipPath id="bfe83a0f73"><path d="M 202.617188 0 L 375 0 L 375 172.5 L 202.617188 172.5 Z M 202.617188 0 " clip-rule="nonzero"/></clipPath><clipPath id="3f266b697c"><path d="M 219.878906 0 L 357.855469 0 C 362.433594 0 366.824219 1.820312 370.058594 5.054688 C 373.296875 8.292969 375.117188 12.683594 375.117188 17.261719 L 375.117188 155.238281 C 375.117188 159.816406 373.296875 164.207031 370.058594 167.445312 C 366.824219 170.679688 362.433594 172.5 357.855469 172.5 L 219.878906 172.5 C 215.300781 172.5 210.910156 170.679688 207.671875 167.445312 C 204.433594 164.207031 202.617188 159.816406 202.617188 155.238281 L 202.617188 17.261719 C 202.617188 12.683594 204.433594 8.292969 207.671875 5.054688 C 210.910156 1.820312 215.300781 0 219.878906 0 " clip-rule="nonzero"/></clipPath><clipPath id="5036eb0f54"><path d="M 0 202.617188 L 172 202.617188 L 172 375 L 0 375 Z M 0 202.617188 " clip-rule="nonzero"/></clipPath><clipPath id="3824e18660"><path d="M 17.25 202.617188 L 155.132812 202.617188 C 164.660156 202.617188 172.382812 210.339844 172.382812 219.867188 L 172.382812 357.75 C 172.382812 367.277344 164.660156 375 155.132812 375 L 17.25 375 C 7.722656 375 0 367.277344 0 357.75 L 0 219.867188 C 0 210.339844 7.722656 202.617188 17.25 202.617188 " clip-rule="nonzero"/></clipPath><clipPath id="7405e80677"><path d="M 0 202.617188 L 172.5 202.617188 L 172.5 375 L 0 375 Z M 0 202.617188 " clip-rule="nonzero"/></clipPath><clipPath id="76ef38ed28"><path d="M 17.261719 202.617188 L 155.238281 202.617188 C 164.773438 202.617188 172.5 210.34375 172.5 219.878906 L 172.5 357.855469 C 172.5 367.386719 164.773438 375.117188 155.238281 375.117188 L 17.261719 375.117188 C 7.726562 375.117188 0 367.386719 0 357.855469 L 0 219.878906 C 0 210.34375 7.726562 202.617188 17.261719 202.617188 " clip-rule="nonzero"/></clipPath><clipPath id="2d50648b95"><path d="M 202.617188 202.617188 L 375 202.617188 L 375 375 L 202.617188 375 Z M 202.617188 202.617188 " clip-rule="nonzero"/></clipPath><clipPath id="cdff294ef3"><path d="M 219.867188 202.617188 L 357.75 202.617188 C 367.277344 202.617188 375 210.339844 375 219.867188 L 375 357.75 C 375 367.277344 367.277344 375 357.75 375 L 219.867188 375 C 210.339844 375 202.617188 367.277344 202.617188 357.75 L 202.617188 219.867188 C 202.617188 210.339844 210.339844 202.617188 219.867188 202.617188 " clip-rule="nonzero"/></clipPath><clipPath id="1136ca62f7"><path d="M 202.617188 202.617188 L 375 202.617188 L 375 375 L 202.617188 375 Z M 202.617188 202.617188 " clip-rule="nonzero"/></clipPath><clipPath id="31a55fe09b"><path d="M 219.878906 202.617188 L 357.855469 202.617188 C 367.386719 202.617188 375.117188 210.34375 375.117188 219.878906 L 375.117188 357.855469 C 375.117188 367.386719 367.386719 375.117188 357.855469 375.117188 L 219.878906 375.117188 C 210.34375 375.117188 202.617188 367.386719 202.617188 357.855469 L 202.617188 219.878906 C 202.617188 210.34375 210.34375 202.617188 219.878906 202.617188 " clip-rule="nonzero"/></clipPath></defs><g clip-path="url(#151a51820f)"><g clip-path="url(#8287603e22)"><path fill="#3b82f6" d="M 0 0 L 171.710938 0 L 171.710938 171.710938 L 0 171.710938 Z M 0 0 " fill-opacity="1" fill-rule="nonzero"/></g></g><g clip-path="url(#004575b0e8)"><g clip-path="url(#dfb1960478)"><path stroke-linecap="butt" transform="matrix(0.75051, 0, 0, 0.75051, 0.0000045, -0.000000000000010658)" fill="none" stroke-linejoin="miter" d="M 22.999984 0.000000000000014201 L 206.843762 0.000000000000014201 C 219.548667 0.000000000000014201 229.843752 10.295085 229.843752 22.99999 L 229.843752 206.843768 C 229.843752 219.548673 219.548667 229.843758 206.843762 229.843758 L 22.999984 229.843758 C 10.295079 229.843758 -0.00000599592 219.548673 -0.00000599592 206.843768 L -0.00000599592 22.99999 C -0.00000599592 10.295085 10.295079 0.000000000000014201 22.999984 0.000000000000014201 " stroke="#000000" stroke-width="34" stroke-opacity="1" stroke-miterlimit="4"/></g></g><g clip-path="url(#76381c53ba)"><g clip-path="url(#9426ecebc9)"><path fill="#3b82f6" d="M 202.617188 0 L 375 0 L 375 172.382812 L 202.617188 172.382812 Z M 202.617188 0 " fill-opacity="1" fill-rule="nonzero"/></g></g><g clip-path="url(#bfe83a0f73)"><g clip-path="url(#3f266b697c)"><path stroke-linecap="butt" transform="matrix(0.75051, 0, 0, 0.75051, 202.616271, -0.000000000000053291)" fill="none" stroke-linejoin="miter" d="M 23.001209 0.000000000000071006 L 206.844969 0.000000000000071006 C 212.944988 0.000000000000071006 218.795178 2.425434 223.104748 6.735004 C 227.419523 11.049779 229.844957 16.899969 229.844957 22.999988 L 229.844957 206.843748 C 229.844957 212.943768 227.419523 218.793957 223.104748 223.108732 C 218.795178 227.418302 212.944988 229.843736 206.844969 229.843736 L 23.001209 229.843736 C 16.901189 229.843736 11.051 227.418302 6.736225 223.108732 C 2.42145 218.793957 0.00122091 212.943768 0.00122091 206.843748 L 0.00122091 22.999988 C 0.00122091 16.899969 2.42145 11.049779 6.736225 6.735004 C 11.051 2.425434 16.901189 0.000000000000071006 23.001209 0.000000000000071006 " stroke="#000000" stroke-width="34" stroke-opacity="1" stroke-miterlimit="4"/></g></g><g clip-path="url(#5036eb0f54)"><g clip-path="url(#3824e18660)"><path fill="#fafafa" d="M 0 202.617188 L 171.710938 202.617188 L 171.710938 374.328125 L 0 374.328125 Z M 0 202.617188 " fill-opacity="1" fill-rule="nonzero"/></g></g><g clip-path="url(#7405e80677)"><g clip-path="url(#76ef38ed28)"><path stroke-linecap="butt" transform="matrix(0.75051, 0, 0, 0.75051, 0.0000045, 202.616267)" fill="none" stroke-linejoin="miter" d="M 22.999984 0.00122691 L 206.843762 0.00122691 C 219.548667 0.00122691 229.843752 10.296312 229.843752 23.001217 L 229.843752 206.844995 C 229.843752 219.544695 219.548667 229.844985 206.843762 229.844985 L 22.999984 229.844985 C 10.295079 229.844985 -0.00000599592 219.544695 -0.00000599592 206.844995 L -0.00000599592 23.001217 C -0.00000599592 10.296312 10.295079 0.00122691 22.999984 0.00122691 " stroke="#000000" stroke-width="34" stroke-opacity="1" stroke-miterlimit="4"/></g></g><g clip-path="url(#2d50648b95)"><g clip-path="url(#cdff294ef3)"><path fill="#3b82f6" d="M 202.617188 202.617188 L 374.328125 202.617188 L 374.328125 374.328125 L 202.617188 374.328125 Z M 202.617188 202.617188 " fill-opacity="1" fill-rule="nonzero"/></g></g><g clip-path="url(#1136ca62f7)"><g clip-path="url(#31a55fe09b)"><path stroke-linecap="butt" transform="matrix(0.75051, 0, 0, 0.75051, 202.616271, 202.616267)" fill="none" stroke-linejoin="miter" d="M 23.001211 0.00122691 L 206.844989 0.00122691 C 219.544689 0.00122691 229.844979 10.296312 229.844979 23.001217 L 229.844979 206.844995 C 229.844979 219.544695 219.544689 229.844985 206.844989 229.844985 L 23.001211 229.844985 C 10.296306 229.844985 0.00122091 219.544695 0.00122091 206.844995 L 0.00122091 23.001217 C 0.00122091 10.296312 10.296306 0.00122691 23.001211 0.00122691 " stroke="#000000" stroke-width="34" stroke-opacity="1" stroke-miterlimit="4"/></g></g></svg>