<svg xmlns="http://www.w3.org/2000/svg" xmlns:xlink="http://www.w3.org/1999/xlink" width="500" zoomAndPan="magnify" viewBox="0 0 375 374.999991" height="500" preserveAspectRatio="xMidYMid meet" version="1.0"><defs><clipPath id="b6e202c618"><path d="M 0 0 L 133 0 L 133 133 L 0 133 Z M 0 0 " clip-rule="nonzero"/></clipPath><clipPath id="fb54b3c4ce"><path d="M 11.25 0 L 121.5 0 C 124.484375 0 127.34375 1.183594 129.453125 3.296875 C 131.566406 5.40625 132.75 8.265625 132.75 11.25 L 132.75 121.5 C 132.75 124.484375 131.566406 127.34375 129.453125 129.453125 C 127.34375 131.566406 124.484375 132.75 121.5 132.75 L 11.25 132.75 C 8.265625 132.75 5.40625 131.566406 3.296875 129.453125 C 1.183594 127.34375 0 124.484375 0 121.5 L 0 11.25 C 0 8.265625 1.183594 5.40625 3.296875 3.296875 C 5.40625 1.183594 8.265625 0 11.25 0 " clip-rule="nonzero"/></clipPath><clipPath id="eb6e0a9a93"><path d="M 0 0 L 132.75 0 L 132.75 132.75 L 0 132.75 Z M 0 0 " clip-rule="nonzero"/></clipPath><clipPath id="1a8e2806c2"><path d="M 11.25 0 L 121.5 0 C 124.484375 0 127.34375 1.183594 129.453125 3.296875 C 131.566406 5.40625 132.75 8.265625 132.75 11.25 L 132.75 121.5 C 132.75 124.484375 131.566406 127.34375 129.453125 129.453125 C 127.34375 131.566406 124.484375 132.75 121.5 132.75 L 11.25 132.75 C 8.265625 132.75 5.40625 131.566406 3.296875 129.453125 C 1.183594 127.34375 0 124.484375 0 121.5 L 0 11.25 C 0 8.265625 1.183594 5.40625 3.296875 3.296875 C 5.40625 1.183594 8.265625 0 11.25 0 " clip-rule="nonzero"/></clipPath><clipPath id="d131f55543"><path d="M 121.125 0 L 253.875 0 L 253.875 132.75 L 121.125 132.75 Z M 121.125 0 " clip-rule="nonzero"/></clipPath><clipPath id="8bc9b4ad4d"><path d="M 242.25 0 L 375 0 L 375 133 L 242.25 133 Z M 242.25 0 " clip-rule="nonzero"/></clipPath><clipPath id="477b1d33da"><path d="M 253.5 0 L 363.75 0 C 366.734375 0 369.59375 1.183594 371.703125 3.296875 C 373.816406 5.40625 375 8.265625 375 11.25 L 375 121.5 C 375 124.484375 373.816406 127.34375 371.703125 129.453125 C 369.59375 131.566406 366.734375 132.75 363.75 132.75 L 253.5 132.75 C 250.515625 132.75 247.65625 131.566406 245.546875 129.453125 C 243.433594 127.34375 242.25 124.484375 242.25 121.5 L 242.25 11.25 C 242.25 8.265625 243.433594 5.40625 245.546875 3.296875 C 247.65625 1.183594 250.515625 0 253.5 0 " clip-rule="nonzero"/></clipPath><clipPath id="5b1f5b5720"><path d="M 242.25 0 L 375 0 L 375 132.75 L 242.25 132.75 Z M 242.25 0 " clip-rule="nonzero"/></clipPath><clipPath id="5c0b8b9c28"><path d="M 253.5 0 L 363.75 0 C 366.734375 0 369.59375 1.183594 371.703125 3.296875 C 373.816406 5.40625 375 8.265625 375 11.25 L 375 121.5 C 375 124.484375 373.816406 127.34375 371.703125 129.453125 C 369.59375 131.566406 366.734375 132.75 363.75 132.75 L 253.5 132.75 C 250.515625 132.75 247.65625 131.566406 245.546875 129.453125 C 243.433594 127.34375 242.25 124.484375 242.25 121.5 L 242.25 11.25 C 242.25 8.265625 243.433594 5.40625 245.546875 3.296875 C 247.65625 1.183594 250.515625 0 253.5 0 " clip-rule="nonzero"/></clipPath><clipPath id="b8de5a1543"><path d="M 0 121.125 L 133 121.125 L 133 254 L 0 254 Z M 0 121.125 " clip-rule="nonzero"/></clipPath><clipPath id="b9a14b00e8"><path d="M 11.25 121.125 L 121.5 121.125 C 124.484375 121.125 127.34375 122.308594 129.453125 124.421875 C 131.566406 126.53125 132.75 129.390625 132.75 132.375 L 132.75 242.625 C 132.75 245.609375 131.566406 248.46875 129.453125 250.578125 C 127.34375 252.691406 124.484375 253.875 121.5 253.875 L 11.25 253.875 C 8.265625 253.875 5.40625 252.691406 3.296875 250.578125 C 1.183594 248.46875 0 245.609375 0 242.625 L 0 132.375 C 0 129.390625 1.183594 126.53125 3.296875 124.421875 C 5.40625 122.308594 8.265625 121.125 11.25 121.125 " clip-rule="nonzero"/></clipPath><clipPath id="4d8674decc"><path d="M 0 121.125 L 132.75 121.125 L 132.75 253.875 L 0 253.875 Z M 0 121.125 " clip-rule="nonzero"/></clipPath><clipPath id="88dc15b86e"><path d="M 11.25 121.125 L 121.5 121.125 C 124.484375 121.125 127.34375 122.308594 129.453125 124.421875 C 131.566406 126.53125 132.75 129.390625 132.75 132.375 L 132.75 242.625 C 132.75 245.609375 131.566406 248.46875 129.453125 250.578125 C 127.34375 252.691406 124.484375 253.875 121.5 253.875 L 11.25 253.875 C 8.265625 253.875 5.40625 252.691406 3.296875 250.578125 C 1.183594 248.46875 0 245.609375 0 242.625 L 0 132.375 C 0 129.390625 1.183594 126.53125 3.296875 124.421875 C 5.40625 122.308594 8.265625 121.125 11.25 121.125 " clip-rule="nonzero"/></clipPath><clipPath id="f7989da348"><path d="M 121.125 121.125 L 254 121.125 L 254 254 L 121.125 254 Z M 121.125 121.125 " clip-rule="nonzero"/></clipPath><clipPath id="bc97ce3ded"><path d="M 132.375 121.125 L 242.625 121.125 C 245.609375 121.125 248.46875 122.308594 250.578125 124.421875 C 252.691406 126.53125 253.875 129.390625 253.875 132.375 L 253.875 242.625 C 253.875 245.609375 252.691406 248.46875 250.578125 250.578125 C 248.46875 252.691406 245.609375 253.875 242.625 253.875 L 132.375 253.875 C 129.390625 253.875 126.53125 252.691406 124.421875 250.578125 C 122.308594 248.46875 121.125 245.609375 121.125 242.625 L 121.125 132.375 C 121.125 129.390625 122.308594 126.53125 124.421875 124.421875 C 126.53125 122.308594 129.390625 121.125 132.375 121.125 " clip-rule="nonzero"/></clipPath><clipPath id="3092d7a1c2"><path d="M 121.125 121.125 L 253.875 121.125 L 253.875 253.875 L 121.125 253.875 Z M 121.125 121.125 " clip-rule="nonzero"/></clipPath><clipPath id="b791832751"><path d="M 132.375 121.125 L 242.625 121.125 C 245.609375 121.125 248.46875 122.308594 250.578125 124.421875 C 252.691406 126.53125 253.875 129.390625 253.875 132.375 L 253.875 242.625 C 253.875 245.609375 252.691406 248.46875 250.578125 250.578125 C 248.46875 252.691406 245.609375 253.875 242.625 253.875 L 132.375 253.875 C 129.390625 253.875 126.53125 252.691406 124.421875 250.578125 C 122.308594 248.46875 121.125 245.609375 121.125 242.625 L 121.125 132.375 C 121.125 129.390625 122.308594 126.53125 124.421875 124.421875 C 126.53125 122.308594 129.390625 121.125 132.375 121.125 " clip-rule="nonzero"/></clipPath><clipPath id="7d15c15f8a"><path d="M 242.25 121.125 L 375 121.125 L 375 254 L 242.25 254 Z M 242.25 121.125 " clip-rule="nonzero"/></clipPath><clipPath id="2dd0e00cd5"><path d="M 253.5 121.125 L 363.75 121.125 C 366.734375 121.125 369.59375 122.308594 371.703125 124.421875 C 373.816406 126.53125 375 129.390625 375 132.375 L 375 242.625 C 375 245.609375 373.816406 248.46875 371.703125 250.578125 C 369.59375 252.691406 366.734375 253.875 363.75 253.875 L 253.5 253.875 C 250.515625 253.875 247.65625 252.691406 245.546875 250.578125 C 243.433594 248.46875 242.25 245.609375 242.25 242.625 L 242.25 132.375 C 242.25 129.390625 243.433594 126.53125 245.546875 124.421875 C 247.65625 122.308594 250.515625 121.125 253.5 121.125 " clip-rule="nonzero"/></clipPath><clipPath id="5298f156d5"><path d="M 242.25 121.125 L 375 121.125 L 375 253.875 L 242.25 253.875 Z M 242.25 121.125 " clip-rule="nonzero"/></clipPath><clipPath id="31d55eb0e4"><path d="M 253.5 121.125 L 363.75 121.125 C 366.734375 121.125 369.59375 122.308594 371.703125 124.421875 C 373.816406 126.53125 375 129.390625 375 132.375 L 375 242.625 C 375 245.609375 373.816406 248.46875 371.703125 250.578125 C 369.59375 252.691406 366.734375 253.875 363.75 253.875 L 253.5 253.875 C 250.515625 253.875 247.65625 252.691406 245.546875 250.578125 C 243.433594 248.46875 242.25 245.609375 242.25 242.625 L 242.25 132.375 C 242.25 129.390625 243.433594 126.53125 245.546875 124.421875 C 247.65625 122.308594 250.515625 121.125 253.5 121.125 " clip-rule="nonzero"/></clipPath><clipPath id="96299d6efe"><path d="M 0 242.25 L 133 242.25 L 133 375 L 0 375 Z M 0 242.25 " clip-rule="nonzero"/></clipPath><clipPath id="a7721c00bb"><path d="M 11.25 242.25 L 121.5 242.25 C 124.484375 242.25 127.34375 243.433594 129.453125 245.546875 C 131.566406 247.65625 132.75 250.515625 132.75 253.5 L 132.75 363.75 C 132.75 366.734375 131.566406 369.59375 129.453125 371.703125 C 127.34375 373.816406 124.484375 375 121.5 375 L 11.25 375 C 8.265625 375 5.40625 373.816406 3.296875 371.703125 C 1.183594 369.59375 0 366.734375 0 363.75 L 0 253.5 C 0 250.515625 1.183594 247.65625 3.296875 245.546875 C 5.40625 243.433594 8.265625 242.25 11.25 242.25 " clip-rule="nonzero"/></clipPath><clipPath id="6b0e8dd118"><path d="M 0 242.25 L 132.75 242.25 L 132.75 375 L 0 375 Z M 0 242.25 " clip-rule="nonzero"/></clipPath><clipPath id="f60758cf61"><path d="M 11.25 242.25 L 121.5 242.25 C 124.484375 242.25 127.34375 243.433594 129.453125 245.546875 C 131.566406 247.65625 132.75 250.515625 132.75 253.5 L 132.75 363.75 C 132.75 366.734375 131.566406 369.59375 129.453125 371.703125 C 127.34375 373.816406 124.484375 375 121.5 375 L 11.25 375 C 8.265625 375 5.40625 373.816406 3.296875 371.703125 C 1.183594 369.59375 0 366.734375 0 363.75 L 0 253.5 C 0 250.515625 1.183594 247.65625 3.296875 245.546875 C 5.40625 243.433594 8.265625 242.25 11.25 242.25 " clip-rule="nonzero"/></clipPath><clipPath id="16f760095a"><path d="M 121.125 242.25 L 254 242.25 L 254 375 L 121.125 375 Z M 121.125 242.25 " clip-rule="nonzero"/></clipPath><clipPath id="551e297005"><path d="M 132.375 242.25 L 242.625 242.25 C 245.609375 242.25 248.46875 243.433594 250.578125 245.546875 C 252.691406 247.65625 253.875 250.515625 253.875 253.5 L 253.875 363.75 C 253.875 366.734375 252.691406 369.59375 250.578125 371.703125 C 248.46875 373.816406 245.609375 375 242.625 375 L 132.375 375 C 129.390625 375 126.53125 373.816406 124.421875 371.703125 C 122.308594 369.59375 121.125 366.734375 121.125 363.75 L 121.125 253.5 C 121.125 250.515625 122.308594 247.65625 124.421875 245.546875 C 126.53125 243.433594 129.390625 242.25 132.375 242.25 " clip-rule="nonzero"/></clipPath><clipPath id="b54b653a87"><path d="M 121.125 242.25 L 253.875 242.25 L 253.875 375 L 121.125 375 Z M 121.125 242.25 " clip-rule="nonzero"/></clipPath><clipPath id="c392dbede2"><path d="M 132.375 242.25 L 242.625 242.25 C 245.609375 242.25 248.46875 243.433594 250.578125 245.546875 C 252.691406 247.65625 253.875 250.515625 253.875 253.5 L 253.875 363.75 C 253.875 366.734375 252.691406 369.59375 250.578125 371.703125 C 248.46875 373.816406 245.609375 375 242.625 375 L 132.375 375 C 129.390625 375 126.53125 373.816406 124.421875 371.703125 C 122.308594 369.59375 121.125 366.734375 121.125 363.75 L 121.125 253.5 C 121.125 250.515625 122.308594 247.65625 124.421875 245.546875 C 126.53125 243.433594 129.390625 242.25 132.375 242.25 " clip-rule="nonzero"/></clipPath><clipPath id="917beae209"><path d="M 242.25 242.25 L 375 242.25 L 375 375 L 242.25 375 Z M 242.25 242.25 " clip-rule="nonzero"/></clipPath><clipPath id="c73c0f3a0f"><path d="M 253.5 242.25 L 363.75 242.25 C 366.734375 242.25 369.59375 243.433594 371.703125 245.546875 C 373.816406 247.65625 375 250.515625 375 253.5 L 375 363.75 C 375 366.734375 373.816406 369.59375 371.703125 371.703125 C 369.59375 373.816406 366.734375 375 363.75 375 L 253.5 375 C 250.515625 375 247.65625 373.816406 245.546875 371.703125 C 243.433594 369.59375 242.25 366.734375 242.25 363.75 L 242.25 253.5 C 242.25 250.515625 243.433594 247.65625 245.546875 245.546875 C 247.65625 243.433594 250.515625 242.25 253.5 242.25 " clip-rule="nonzero"/></clipPath></defs><rect x="-37.5" width="450" fill="#ffffff" y="-37.499999" height="449.999989" fill-opacity="1"/><rect x="-37.5" width="450" fill="#ffffff" y="-37.499999" height="449.999989" fill-opacity="1"/><rect x="-37.5" width="450" fill="#ffffff" y="-37.499999" height="449.999989" fill-opacity="1"/><g clip-path="url(#b6e202c618)"><g clip-path="url(#fb54b3c4ce)"><path fill="#6aaa64" d="M 0 0 L 133.078125 0 L 133.078125 133.078125 L 0 133.078125 Z M 0 0 " fill-opacity="1" fill-rule="nonzero"/></g></g><g clip-path="url(#eb6e0a9a93)"><g clip-path="url(#1a8e2806c2)"><path stroke-linecap="butt" transform="matrix(0.75, 0, 0, 0.75, 0.0000045, 0)" fill="none" stroke-linejoin="miter" d="M 14.999995 0 L 162.000005 0 C 165.979172 0 169.791672 1.578125 172.604172 4.395834 C 175.421881 7.208334 177.000006 11.020834 177.000006 15.000001 L 177.000006 162.000011 C 177.000006 165.979178 175.421881 169.791678 172.604172 172.604178 C 169.791672 175.421887 165.979172 177.000012 162.000005 177.000012 L 14.999995 177.000012 C 11.020828 177.000012 7.208328 175.421887 4.395828 172.604178 C 1.578119 169.791678 -0.000006 165.979178 -0.000006 162.000011 L -0.000006 15.000001 C -0.000006 11.020834 1.578119 7.208334 4.395828 4.395834 C 7.208328 1.578125 11.020828 0 14.999995 0 " stroke="#000000" stroke-width="30" stroke-opacity="1" stroke-miterlimit="4"/></g></g><g clip-path="url(#d131f55543)"><path fill="#6aaa64" d="M 121.125 0 L 254.203125 0 L 254.203125 133.078125 L 121.125 133.078125 Z M 121.125 0 " fill-opacity="1" fill-rule="nonzero"/><path stroke-linecap="butt" transform="matrix(0.75, 0, 0, 0.75, 121.124997, 0)" fill="none" stroke-linejoin="miter" d="M 0.00000460517 0 L 177.000016 0 L 177.000016 177.000012 L 0.00000460517 177.000012 L 0.00000460517 0 " stroke="#000000" stroke-width="30" stroke-opacity="1" stroke-miterlimit="4"/></g><g clip-path="url(#8bc9b4ad4d)"><g clip-path="url(#477b1d33da)"><path fill="#6aaa64" d="M 242.25 0 L 375.328125 0 L 375.328125 133.078125 L 242.25 133.078125 Z M 242.25 0 " fill-opacity="1" fill-rule="nonzero"/></g></g><g clip-path="url(#5b1f5b5720)"><g clip-path="url(#5c0b8b9c28)"><path stroke-linecap="butt" transform="matrix(0.75, 0, 0, 0.75, 242.249989, 0)" fill="none" stroke-linejoin="miter" d="M 15.000016 0 L 162.000026 0 C 165.979193 0 169.791693 1.578125 172.604193 4.395834 C 175.421902 7.208334 177.000027 11.020834 177.000027 15.000001 L 177.000027 162.000011 C 177.000027 165.979178 175.421902 169.791678 172.604193 172.604178 C 169.791693 175.421887 165.979193 177.000012 162.000026 177.000012 L 15.000016 177.000012 C 11.020849 177.000012 7.208349 175.421887 4.395849 172.604178 C 1.57814 169.791678 0.0000152103 165.979178 0.0000152103 162.000011 L 0.0000152103 15.000001 C 0.0000152103 11.020834 1.57814 7.208334 4.395849 4.395834 C 7.208349 1.578125 11.020849 0 15.000016 0 " stroke="#000000" stroke-width="30" stroke-opacity="1" stroke-miterlimit="4"/></g></g><g clip-path="url(#b8de5a1543)"><g clip-path="url(#b9a14b00e8)"><path fill="#f8cd0e" d="M 0 121.125 L 133.078125 121.125 L 133.078125 254.203125 L 0 254.203125 Z M 0 121.125 " fill-opacity="1" fill-rule="nonzero"/></g></g><g clip-path="url(#4d8674decc)"><g clip-path="url(#88dc15b86e)"><path stroke-linecap="butt" transform="matrix(0.75, 0, 0, 0.75, 0.0000045, 121.124992)" fill="none" stroke-linejoin="miter" d="M 14.999995 0.0000106052 L 162.000005 0.0000106052 C 165.979172 0.0000106052 169.791672 1.578136 172.604172 4.395844 C 175.421881 7.208344 177.000006 11.020845 177.000006 15.000012 L 177.000006 162.000021 C 177.000006 165.979188 175.421881 169.791688 172.604172 172.604189 C 169.791672 175.421897 165.979172 177.000022 162.000005 177.000022 L 14.999995 177.000022 C 11.020828 177.000022 7.208328 175.421897 4.395828 172.604189 C 1.578119 169.791688 -0.000006 165.979188 -0.000006 162.000021 L -0.000006 15.000012 C -0.000006 11.020845 1.578119 7.208344 4.395828 4.395844 C 7.208328 1.578136 11.020828 0.0000106052 14.999995 0.0000106052 " stroke="#000000" stroke-width="30" stroke-opacity="1" stroke-miterlimit="4"/></g></g><g clip-path="url(#f7989da348)"><g clip-path="url(#bc97ce3ded)"><path fill="#f8cd0e" d="M 121.125 121.125 L 254.203125 121.125 L 254.203125 254.203125 L 121.125 254.203125 Z M 121.125 121.125 " fill-opacity="1" fill-rule="nonzero"/></g></g><g clip-path="url(#3092d7a1c2)"><g clip-path="url(#b791832751)"><path stroke-linecap="butt" transform="matrix(0.75, 0, 0, 0.75, 121.124997, 121.124992)" fill="none" stroke-linejoin="miter" d="M 15.000006 0.0000106052 L 162.000015 0.0000106052 C 165.979182 0.0000106052 169.791682 1.578136 172.604183 4.395844 C 175.421891 7.208344 177.000016 11.020845 177.000016 15.000012 L 177.000016 162.000021 C 177.000016 165.979188 175.421891 169.791688 172.604183 172.604189 C 169.791682 175.421897 165.979182 177.000022 162.000015 177.000022 L 15.000006 177.000022 C 11.020839 177.000022 7.208338 175.421897 4.395838 172.604189 C 1.57813 169.791688 0.00000460517 165.979188 0.00000460517 162.000021 L 0.00000460517 15.000012 C 0.00000460517 11.020845 1.57813 7.208344 4.395838 4.395844 C 7.208338 1.578136 11.020839 0.0000106052 15.000006 0.0000106052 " stroke="#000000" stroke-width="30" stroke-opacity="1" stroke-miterlimit="4"/></g></g><g clip-path="url(#7d15c15f8a)"><g clip-path="url(#2dd0e00cd5)"><path fill="#fafafa" d="M 242.25 121.125 L 375.328125 121.125 L 375.328125 254.203125 L 242.25 254.203125 Z M 242.25 121.125 " fill-opacity="1" fill-rule="nonzero"/></g></g><g clip-path="url(#5298f156d5)"><g clip-path="url(#31d55eb0e4)"><path stroke-linecap="butt" transform="matrix(0.75, 0, 0, 0.75, 242.249989, 121.124992)" fill="none" stroke-linejoin="miter" d="M 15.000016 0.0000106052 L 162.000026 0.0000106052 C 165.979193 0.0000106052 169.791693 1.578136 172.604193 4.395844 C 175.421902 7.208344 177.000027 11.020845 177.000027 15.000012 L 177.000027 162.000021 C 177.000027 165.979188 175.421902 169.791688 172.604193 172.604189 C 169.791693 175.421897 165.979193 177.000022 162.000026 177.000022 L 15.000016 177.000022 C 11.020849 177.000022 7.208349 175.421897 4.395849 172.604189 C 1.57814 169.791688 0.0000152103 165.979188 0.0000152103 162.000021 L 0.0000152103 15.000012 C 0.0000152103 11.020845 1.57814 7.208344 4.395849 4.395844 C 7.208349 1.578136 11.020849 0.0000106052 15.000016 0.0000106052 " stroke="#000000" stroke-width="30" stroke-opacity="1" stroke-miterlimit="4"/></g></g><g clip-path="url(#96299d6efe)"><g clip-path="url(#a7721c00bb)"><path fill="#fafafa" d="M 0 242.25 L 133.078125 242.25 L 133.078125 375.328125 L 0 375.328125 Z M 0 242.25 " fill-opacity="1" fill-rule="nonzero"/></g></g><g clip-path="url(#6b0e8dd118)"><g clip-path="url(#f60758cf61)"><path stroke-linecap="butt" transform="matrix(0.75, 0, 0, 0.75, 0.0000045, 242.249984)" fill="none" stroke-linejoin="miter" d="M 14.999995 0.0000212103 L 162.000005 0.0000212103 C 165.979172 0.0000212103 169.791672 1.578146 172.604172 4.395855 C 175.421881 7.208355 177.000006 11.020855 177.000006 15.000022 L 177.000006 162.000032 C 177.000006 165.979199 175.421881 169.791699 172.604172 172.604199 C 169.791672 175.421908 165.979172 177.000033 162.000005 177.000033 L 14.999995 177.000033 C 11.020828 177.000033 7.208328 175.421908 4.395828 172.604199 C 1.578119 169.791699 -0.000006 165.979199 -0.000006 162.000032 L -0.000006 15.000022 C -0.000006 11.020855 1.578119 7.208355 4.395828 4.395855 C 7.208328 1.578146 11.020828 0.0000212103 14.999995 0.0000212103 " stroke="#000000" stroke-width="30" stroke-opacity="1" stroke-miterlimit="4"/></g></g><g clip-path="url(#16f760095a)"><g clip-path="url(#551e297005)"><path fill="#fafafa" d="M 121.125 242.25 L 254.203125 242.25 L 254.203125 375.328125 L 121.125 375.328125 Z M 121.125 242.25 " fill-opacity="1" fill-rule="nonzero"/></g></g><g clip-path="url(#b54b653a87)"><g clip-path="url(#c392dbede2)"><path stroke-linecap="butt" transform="matrix(0.75, 0, 0, 0.75, 121.124997, 242.249984)" fill="none" stroke-linejoin="miter" d="M 15.000006 0.0000212103 L 162.000015 0.0000212103 C 165.979182 0.0000212103 169.791682 1.578146 172.604183 4.395855 C 175.421891 7.208355 177.000016 11.020855 177.000016 15.000022 L 177.000016 162.000032 C 177.000016 165.979199 175.421891 169.791699 172.604183 172.604199 C 169.791682 175.421908 165.979182 177.000033 162.000015 177.000033 L 15.000006 177.000033 C 11.020839 177.000033 7.208338 175.421908 4.395838 172.604199 C 1.57813 169.791699 0.00000460517 165.979199 0.00000460517 162.000032 L 0.00000460517 15.000022 C 0.00000460517 11.020855 1.57813 7.208355 4.395838 4.395855 C 7.208338 1.578146 11.020839 0.0000212103 15.000006 0.0000212103 " stroke="#000000" stroke-width="30" stroke-opacity="1" stroke-miterlimit="4"/></g></g><g clip-path="url(#917beae209)"><g clip-path="url(#c73c0f3a0f)"><path fill="#fafafa" d="M 242.25 242.25 L 375.328125 242.25 L 375.328125 375.328125 L 242.25 375.328125 Z M 242.25 242.25 " fill-opacity="1" fill-rule="nonzero"/><path stroke-linecap="butt" transform="matrix(0.75, 0, 0, 0.75, 242.249989, 242.249984)" fill="none" stroke-linejoin="miter" d="M 15.000016 0.0000212103 L 162.000026 0.0000212103 C 165.979193 0.0000212103 169.791693 1.578146 172.604193 4.395855 C 175.421902 7.208355 177.000027 11.020855 177.000027 15.000022 L 177.000027 162.000032 C 177.000027 165.979199 175.421902 169.791699 172.604193 172.604199 C 169.791693 175.421908 165.979193 177.000033 162.000026 177.000033 L 15.000016 177.000033 C 11.020849 177.000033 7.208349 175.421908 4.395849 172.604199 C 1.57814 169.791699 0.0000152103 165.979199 0.0000152103 162.000032 L 0.0000152103 15.000022 C 0.0000152103 11.020855 1.57814 7.208355 4.395849 4.395855 C 7.208349 1.578146 11.020849 0.0000212103 15.000016 0.0000212103 " stroke="#000000" stroke-width="30" stroke-opacity="1" stroke-miterlimit="4"/></g></g><path stroke-linecap="butt" transform="matrix(-0.000000000000000121, -0.74953, 0.75, -0.000000000000000121, -11.252089, 360.80022)" fill="none" stroke-linejoin="miter" d="M -0.000748392 14.997579 L 449.285736 14.997579 " stroke="#000000" stroke-width="30" stroke-opacity="1" stroke-miterlimit="4"/><path stroke-linecap="butt" transform="matrix(-0.000000000000000121, -0.74953, 0.75, -0.000000000000000121, 363.7479, 360.80022)" fill="none" stroke-linejoin="miter" d="M -0.000748392 14.997593 L 449.285736 14.997593 " stroke="#000000" stroke-width="30" stroke-opacity="1" stroke-miterlimit="4"/><path stroke-linecap="butt" transform="matrix(0.75, 0, 0, 0.75, 0.0000045, 121.499992)" fill="none" stroke-linejoin="miter" d="M -0.000006 7.500011 L 500.000027 7.500011 " stroke="#000000" stroke-width="15" stroke-opacity="1" stroke-miterlimit="4"/><path stroke-linecap="butt" transform="matrix(0.75, 0, 0, 0.75, -11.249995, 242.624984)" fill="none" stroke-linejoin="miter" d="M -0.000006985 7.500022 L 500.000026 7.500022 " stroke="#000000" stroke-width="15" stroke-opacity="1" stroke-miterlimit="4"/><path stroke-linecap="butt" transform="matrix(0.749486, 0, 0, 0.75, 21.511631, 369.374976)" fill="none" stroke-linejoin="miter" d="M 0.00011707 7.500033 L 456.317886 7.500033 " stroke="#000000" stroke-width="15" stroke-opacity="1" stroke-miterlimit="4"/></svg>